<mxfile host="app.diagrams.net" modified="2023-11-09T08:54:42.868Z" agent="Mozilla/5.0 (Windows NT 10.0; Win64; x64) AppleWebKit/537.36 (KHTML, like Gecko) Chrome/119.0.0.0 Safari/537.36" etag="U7R1OwaMlk3AfC6hwGH0" version="22.0.8" type="device">
  <diagram id="C5RBs43oDa-KdzZeNtuy" name="Page-1">
    <mxGraphModel dx="2514" dy="2131" grid="1" gridSize="10" guides="1" tooltips="1" connect="1" arrows="1" fold="1" page="1" pageScale="1" pageWidth="827" pageHeight="1169" math="0" shadow="0">
      <root>
        <mxCell id="WIyWlLk6GJQsqaUBKTNV-0" />
        <mxCell id="WIyWlLk6GJQsqaUBKTNV-1" parent="WIyWlLk6GJQsqaUBKTNV-0" />
        <mxCell id="ilgVAeaoaIIIPj3hmc9z-3" value="" style="edgeStyle=none;curved=1;rounded=0;orthogonalLoop=1;jettySize=auto;html=1;fontSize=12;startSize=8;endSize=8;" edge="1" parent="WIyWlLk6GJQsqaUBKTNV-1" target="ilgVAeaoaIIIPj3hmc9z-2">
          <mxGeometry relative="1" as="geometry">
            <mxPoint x="130" y="60" as="sourcePoint" />
          </mxGeometry>
        </mxCell>
        <mxCell id="ilgVAeaoaIIIPj3hmc9z-6" value="" style="edgeStyle=none;curved=1;rounded=0;orthogonalLoop=1;jettySize=auto;html=1;fontSize=12;startSize=8;endSize=8;" edge="1" parent="WIyWlLk6GJQsqaUBKTNV-1" source="ilgVAeaoaIIIPj3hmc9z-1" target="ilgVAeaoaIIIPj3hmc9z-5">
          <mxGeometry relative="1" as="geometry" />
        </mxCell>
        <mxCell id="ilgVAeaoaIIIPj3hmc9z-1" value="Retrieve Orders" style="rounded=1;whiteSpace=wrap;html=1;fontSize=12;glass=0;strokeWidth=1;shadow=0;" vertex="1" parent="WIyWlLk6GJQsqaUBKTNV-1">
          <mxGeometry x="70" y="250" width="120" height="40" as="geometry" />
        </mxCell>
        <mxCell id="ilgVAeaoaIIIPj3hmc9z-4" value="" style="edgeStyle=none;curved=1;rounded=0;orthogonalLoop=1;jettySize=auto;html=1;fontSize=12;startSize=8;endSize=8;" edge="1" parent="WIyWlLk6GJQsqaUBKTNV-1" source="ilgVAeaoaIIIPj3hmc9z-2" target="ilgVAeaoaIIIPj3hmc9z-1">
          <mxGeometry relative="1" as="geometry" />
        </mxCell>
        <mxCell id="ilgVAeaoaIIIPj3hmc9z-15" value="Yes" style="edgeLabel;html=1;align=center;verticalAlign=middle;resizable=0;points=[];fontSize=16;" vertex="1" connectable="0" parent="ilgVAeaoaIIIPj3hmc9z-4">
          <mxGeometry y="3" relative="1" as="geometry">
            <mxPoint x="17" as="offset" />
          </mxGeometry>
        </mxCell>
        <mxCell id="ilgVAeaoaIIIPj3hmc9z-17" value="" style="edgeStyle=none;curved=1;rounded=0;orthogonalLoop=1;jettySize=auto;html=1;fontSize=12;startSize=8;endSize=8;" edge="1" parent="WIyWlLk6GJQsqaUBKTNV-1" source="ilgVAeaoaIIIPj3hmc9z-2" target="ilgVAeaoaIIIPj3hmc9z-16">
          <mxGeometry relative="1" as="geometry" />
        </mxCell>
        <mxCell id="ilgVAeaoaIIIPj3hmc9z-18" value="No" style="edgeLabel;html=1;align=center;verticalAlign=middle;resizable=0;points=[];fontSize=16;" vertex="1" connectable="0" parent="ilgVAeaoaIIIPj3hmc9z-17">
          <mxGeometry x="-0.0545" y="3" relative="1" as="geometry">
            <mxPoint y="18" as="offset" />
          </mxGeometry>
        </mxCell>
        <mxCell id="ilgVAeaoaIIIPj3hmc9z-2" value="Is Firebase connection established?" style="rhombus;whiteSpace=wrap;html=1;shadow=0;fontFamily=Helvetica;fontSize=12;align=center;strokeWidth=1;spacing=6;spacingTop=-4;" vertex="1" parent="WIyWlLk6GJQsqaUBKTNV-1">
          <mxGeometry x="45" y="100" width="170" height="110" as="geometry" />
        </mxCell>
        <mxCell id="ilgVAeaoaIIIPj3hmc9z-8" style="edgeStyle=none;curved=1;rounded=0;orthogonalLoop=1;jettySize=auto;html=1;exitX=0.5;exitY=1;exitDx=0;exitDy=0;entryX=0.5;entryY=0;entryDx=0;entryDy=0;fontSize=12;startSize=8;endSize=8;" edge="1" parent="WIyWlLk6GJQsqaUBKTNV-1" source="ilgVAeaoaIIIPj3hmc9z-5" target="ilgVAeaoaIIIPj3hmc9z-7">
          <mxGeometry relative="1" as="geometry" />
        </mxCell>
        <mxCell id="ilgVAeaoaIIIPj3hmc9z-21" value="Yes" style="edgeLabel;html=1;align=center;verticalAlign=middle;resizable=0;points=[];fontSize=16;" vertex="1" connectable="0" parent="ilgVAeaoaIIIPj3hmc9z-8">
          <mxGeometry x="0.1333" y="1" relative="1" as="geometry">
            <mxPoint x="19" y="-7" as="offset" />
          </mxGeometry>
        </mxCell>
        <mxCell id="ilgVAeaoaIIIPj3hmc9z-20" value="" style="edgeStyle=none;curved=1;rounded=0;orthogonalLoop=1;jettySize=auto;html=1;fontSize=12;startSize=8;endSize=8;" edge="1" parent="WIyWlLk6GJQsqaUBKTNV-1" source="ilgVAeaoaIIIPj3hmc9z-5" target="ilgVAeaoaIIIPj3hmc9z-19">
          <mxGeometry relative="1" as="geometry" />
        </mxCell>
        <mxCell id="ilgVAeaoaIIIPj3hmc9z-22" value="No" style="edgeLabel;html=1;align=center;verticalAlign=middle;resizable=0;points=[];fontSize=16;" vertex="1" connectable="0" parent="ilgVAeaoaIIIPj3hmc9z-20">
          <mxGeometry x="-0.2544" y="-2" relative="1" as="geometry">
            <mxPoint x="2" y="9" as="offset" />
          </mxGeometry>
        </mxCell>
        <mxCell id="ilgVAeaoaIIIPj3hmc9z-5" value="Are orders available?" style="rhombus;whiteSpace=wrap;html=1;shadow=0;fontFamily=Helvetica;fontSize=12;align=center;strokeWidth=1;spacing=6;spacingTop=-4;" vertex="1" parent="WIyWlLk6GJQsqaUBKTNV-1">
          <mxGeometry x="45" y="330" width="170" height="80" as="geometry" />
        </mxCell>
        <mxCell id="ilgVAeaoaIIIPj3hmc9z-13" style="edgeStyle=none;curved=1;rounded=0;orthogonalLoop=1;jettySize=auto;html=1;exitX=0.5;exitY=1;exitDx=0;exitDy=0;entryX=0.5;entryY=0;entryDx=0;entryDy=0;fontSize=12;startSize=8;endSize=8;" edge="1" parent="WIyWlLk6GJQsqaUBKTNV-1" source="ilgVAeaoaIIIPj3hmc9z-7" target="ilgVAeaoaIIIPj3hmc9z-11">
          <mxGeometry relative="1" as="geometry" />
        </mxCell>
        <mxCell id="ilgVAeaoaIIIPj3hmc9z-7" value="Get prioritized order" style="rounded=1;whiteSpace=wrap;html=1;fontSize=12;glass=0;strokeWidth=1;shadow=0;" vertex="1" parent="WIyWlLk6GJQsqaUBKTNV-1">
          <mxGeometry x="70" y="440" width="120" height="40" as="geometry" />
        </mxCell>
        <mxCell id="ilgVAeaoaIIIPj3hmc9z-30" style="edgeStyle=none;curved=1;rounded=0;orthogonalLoop=1;jettySize=auto;html=1;exitX=0.5;exitY=1;exitDx=0;exitDy=0;entryX=0.5;entryY=0;entryDx=0;entryDy=0;fontSize=12;startSize=8;endSize=8;" edge="1" parent="WIyWlLk6GJQsqaUBKTNV-1" source="ilgVAeaoaIIIPj3hmc9z-9" target="ilgVAeaoaIIIPj3hmc9z-29">
          <mxGeometry relative="1" as="geometry" />
        </mxCell>
        <mxCell id="ilgVAeaoaIIIPj3hmc9z-9" value="Send quantity to OPC UA" style="rounded=1;whiteSpace=wrap;html=1;fontSize=12;glass=0;strokeWidth=1;shadow=0;" vertex="1" parent="WIyWlLk6GJQsqaUBKTNV-1">
          <mxGeometry x="70" y="780" width="120" height="40" as="geometry" />
        </mxCell>
        <mxCell id="ilgVAeaoaIIIPj3hmc9z-14" style="edgeStyle=none;curved=1;rounded=0;orthogonalLoop=1;jettySize=auto;html=1;exitX=0.5;exitY=1;exitDx=0;exitDy=0;entryX=0.5;entryY=0;entryDx=0;entryDy=0;fontSize=12;startSize=8;endSize=8;" edge="1" parent="WIyWlLk6GJQsqaUBKTNV-1" source="ilgVAeaoaIIIPj3hmc9z-11" target="ilgVAeaoaIIIPj3hmc9z-9">
          <mxGeometry relative="1" as="geometry" />
        </mxCell>
        <mxCell id="ilgVAeaoaIIIPj3hmc9z-23" value="Yes" style="edgeLabel;html=1;align=center;verticalAlign=middle;resizable=0;points=[];fontSize=16;" vertex="1" connectable="0" parent="ilgVAeaoaIIIPj3hmc9z-14">
          <mxGeometry x="-0.32" y="3" relative="1" as="geometry">
            <mxPoint x="17" y="3" as="offset" />
          </mxGeometry>
        </mxCell>
        <mxCell id="ilgVAeaoaIIIPj3hmc9z-25" value="" style="edgeStyle=none;curved=1;rounded=0;orthogonalLoop=1;jettySize=auto;html=1;fontSize=12;startSize=8;endSize=8;" edge="1" parent="WIyWlLk6GJQsqaUBKTNV-1" source="ilgVAeaoaIIIPj3hmc9z-11" target="ilgVAeaoaIIIPj3hmc9z-24">
          <mxGeometry relative="1" as="geometry" />
        </mxCell>
        <mxCell id="ilgVAeaoaIIIPj3hmc9z-26" value="No" style="edgeLabel;html=1;align=center;verticalAlign=middle;resizable=0;points=[];fontSize=16;" vertex="1" connectable="0" parent="ilgVAeaoaIIIPj3hmc9z-25">
          <mxGeometry x="-0.3217" relative="1" as="geometry">
            <mxPoint y="10" as="offset" />
          </mxGeometry>
        </mxCell>
        <mxCell id="ilgVAeaoaIIIPj3hmc9z-11" value="Is OPC UA Server&lt;br&gt;&amp;nbsp;connection established? &lt;br&gt;&lt;b&gt;&lt;u&gt;AND&lt;/u&gt;&lt;/b&gt;&lt;br&gt;Is EtherCAT &lt;br&gt;connection established?&lt;br&gt;&lt;b&gt;&lt;u&gt;AND&lt;br&gt;&lt;/u&gt;&lt;/b&gt;Is MySQL &lt;br&gt;connection established?" style="rhombus;whiteSpace=wrap;html=1;shadow=0;fontFamily=Helvetica;fontSize=12;align=center;strokeWidth=1;spacing=6;spacingTop=-4;" vertex="1" parent="WIyWlLk6GJQsqaUBKTNV-1">
          <mxGeometry x="-2.5" y="510" width="265" height="220" as="geometry" />
        </mxCell>
        <mxCell id="ilgVAeaoaIIIPj3hmc9z-16" value="No Firebase connection established" style="shape=display;whiteSpace=wrap;html=1;fontSize=16;" vertex="1" parent="WIyWlLk6GJQsqaUBKTNV-1">
          <mxGeometry x="280" y="117.5" width="140" height="75" as="geometry" />
        </mxCell>
        <mxCell id="ilgVAeaoaIIIPj3hmc9z-19" value="No Orders available" style="shape=display;whiteSpace=wrap;html=1;fontSize=16;" vertex="1" parent="WIyWlLk6GJQsqaUBKTNV-1">
          <mxGeometry x="280" y="330" width="140" height="75" as="geometry" />
        </mxCell>
        <mxCell id="ilgVAeaoaIIIPj3hmc9z-24" value="No Connections Established" style="shape=display;whiteSpace=wrap;html=1;fontSize=16;" vertex="1" parent="WIyWlLk6GJQsqaUBKTNV-1">
          <mxGeometry x="320" y="582.5" width="140" height="75" as="geometry" />
        </mxCell>
        <mxCell id="ilgVAeaoaIIIPj3hmc9z-28" value="" style="edgeStyle=none;curved=1;rounded=0;orthogonalLoop=1;jettySize=auto;html=1;fontSize=12;startSize=8;endSize=8;" edge="1" parent="WIyWlLk6GJQsqaUBKTNV-1" source="ilgVAeaoaIIIPj3hmc9z-27" target="ilgVAeaoaIIIPj3hmc9z-2">
          <mxGeometry relative="1" as="geometry" />
        </mxCell>
        <mxCell id="ilgVAeaoaIIIPj3hmc9z-27" value="Retrieve Orders" style="shape=manualInput;whiteSpace=wrap;html=1;fontSize=16;" vertex="1" parent="WIyWlLk6GJQsqaUBKTNV-1">
          <mxGeometry x="-120" y="111.5" width="100" height="87" as="geometry" />
        </mxCell>
        <mxCell id="ilgVAeaoaIIIPj3hmc9z-29" value="Start Production" style="rounded=1;whiteSpace=wrap;html=1;fontSize=12;glass=0;strokeWidth=1;shadow=0;" vertex="1" parent="WIyWlLk6GJQsqaUBKTNV-1">
          <mxGeometry x="70" y="860" width="120" height="40" as="geometry" />
        </mxCell>
        <mxCell id="ilgVAeaoaIIIPj3hmc9z-31" value="Order Retrieval Flowchart" style="text;html=1;align=center;verticalAlign=middle;resizable=0;points=[];autosize=1;strokeColor=none;fillColor=none;fontSize=20;fontStyle=1" vertex="1" parent="WIyWlLk6GJQsqaUBKTNV-1">
          <mxGeometry x="-210" y="50" width="270" height="40" as="geometry" />
        </mxCell>
        <mxCell id="ilgVAeaoaIIIPj3hmc9z-32" value="" style="shape=ext;double=1;rounded=0;whiteSpace=wrap;html=1;fontSize=16;fillColor=none;strokeWidth=2;" vertex="1" parent="WIyWlLk6GJQsqaUBKTNV-1">
          <mxGeometry x="-260" width="760" height="920" as="geometry" />
        </mxCell>
        <mxCell id="ilgVAeaoaIIIPj3hmc9z-73" value="Start" style="strokeWidth=2;html=1;shape=mxgraph.flowchart.terminator;whiteSpace=wrap;fontSize=16;" vertex="1" parent="WIyWlLk6GJQsqaUBKTNV-1">
          <mxGeometry x="80" y="20" width="100" height="60" as="geometry" />
        </mxCell>
      </root>
    </mxGraphModel>
  </diagram>
</mxfile>
